<?xml version="1.0" encoding="UTF-8"?>
<svg version="1.1" viewBox="0 0 24 24" xmlns="http://www.w3.org/2000/svg" xmlns:xlink="http://www.w3.org/1999/xlink">
    <!--Generated by IJSVG (https://github.com/iconjar/IJSVG)-->
    <g fill="#9A9B94">
        <path opacity="0" d="M0,0h24v24h-24Z"></path>
        <path d="M9.86,18l9.06832e-09,2.91749e-11c-0.277165,-0.000891617 -0.541528,-0.116777 -0.73,-0.32l-4.86,-5.17l-4.09051e-08,-4.35923e-08c-0.378315,-0.403168 -0.358168,-1.03668 0.0450001,-1.415c0.403168,-0.378315 1.03668,-0.358168 1.415,0.0450001c0,0 1.44353e-08,1.53836e-08 1.44353e-08,1.53836e-08l4.12,4.39l8.41,-9.2l-9.52609e-08,1.18624e-07c0.34581,-0.43062 0.975231,-0.499373 1.40585,-0.153563c0.43062,0.34581 0.499373,0.975231 0.153563,1.40585c-0.0247171,0.030779 -0.051235,0.0600675 -0.0794146,0.0877116l-9.14,10l5.22553e-08,-5.79111e-08c-0.186714,0.206923 -0.451312,0.326535 -0.73,0.33Z"></path>
    </g>
</svg>