<svg width="20" height="20" viewBox="0 0 20 20" fill="none" xmlns="http://www.w3.org/2000/svg">
<path fill-rule="evenodd" clip-rule="evenodd" d="M16 1C14.3431 1 13 2.34315 13 4V16C13 17.6569 14.3431 19 16 19C17.6569 19 19 17.6569 19 16C19 14.3431 17.6569 13 16 13H4C2.34315 13 1 14.3431 1 16C1 17.6569 2.34315 19 4 19C5.65685 19 7 17.6569 7 16V4C7 2.34315 5.65685 1 4 1C2.34315 1 1 2.34315 1 4C1 5.65685 2.34315 7 4 7H16C17.6569 7 19 5.65685 19 4C19 2.34315 17.6569 1 16 1Z" stroke="#306BF3" stroke-width="2" stroke-linecap="round" stroke-linejoin="round"/>
</svg>
